<svg width="100" height="52" viewBox="0 0 100 52" fill="none" xmlns="http://www.w3.org/2000/svg">
<path d="M24.54 32V24.272H26.796V26.996L29.136 24.272H31.704L28.98 27.44L31.896 32H29.496L27.588 28.88L26.796 29.768V32H24.54ZM32.7314 32V24.272H36.7514C37.3834 24.272 37.8994 24.388 38.2994 24.62C38.7074 24.852 39.0114 25.176 39.2114 25.592C39.4114 26 39.5114 26.476 39.5114 27.02C39.5114 27.54 39.3794 28 39.1154 28.4C38.8594 28.792 38.5154 29.092 38.0834 29.3C38.1714 29.372 38.2474 29.46 38.3114 29.564C38.3754 29.66 38.4474 29.796 38.5274 29.972L39.4154 32H37.0634L36.2474 30.14C36.1834 29.996 36.1034 29.896 36.0074 29.84C35.9194 29.776 35.7914 29.744 35.6234 29.744H34.9874V32H32.7314ZM34.9874 28.016H36.1754C36.5034 28.016 36.7554 27.932 36.9314 27.764C37.1154 27.588 37.2074 27.34 37.2074 27.02C37.2074 26.34 36.8874 26 36.2474 26H34.9874V28.016ZM42.1074 32V29.168L39.3234 24.272H41.6754L43.2354 27.188L44.7954 24.272H47.1474L44.3634 29.168V32H42.1074ZM47.7548 32V24.272H51.7388C52.3708 24.272 52.8908 24.4 53.2988 24.656C53.7148 24.904 54.0228 25.244 54.2228 25.676C54.4228 26.108 54.5228 26.588 54.5228 27.116C54.5228 27.66 54.4068 28.144 54.1748 28.568C53.9428 28.992 53.6148 29.324 53.1908 29.564C52.7668 29.804 52.2668 29.924 51.6908 29.924H50.0108V32H47.7548ZM50.0108 28.196H51.1748C51.5268 28.196 51.7868 28.096 51.9548 27.896C52.1308 27.696 52.2188 27.436 52.2188 27.116C52.2188 26.772 52.1388 26.5 51.9788 26.3C51.8188 26.1 51.5708 26 51.2348 26H50.0108V28.196ZM56.8179 32V25.952H54.6459V24.272H61.2459V25.952H59.0739V32H56.8179ZM65.4316 32.12C64.1516 32.12 63.1716 31.808 62.4916 31.184C61.8196 30.56 61.4836 29.552 61.4836 28.16C61.4836 27.2 61.6356 26.428 61.9396 25.844C62.2436 25.252 62.6876 24.824 63.2716 24.56C63.8636 24.288 64.5836 24.152 65.4316 24.152C66.2796 24.152 66.9956 24.288 67.5796 24.56C68.1716 24.824 68.6196 25.252 68.9236 25.844C69.2276 26.428 69.3796 27.2 69.3796 28.16C69.3796 29.552 69.0396 30.56 68.3596 31.184C67.6796 31.808 66.7036 32.12 65.4316 32.12ZM65.4316 30.2C66.0076 30.2 66.4236 30.04 66.6796 29.72C66.9436 29.392 67.0756 28.872 67.0756 28.16C67.0756 27.4 66.9436 26.864 66.6796 26.552C66.4236 26.232 66.0076 26.072 65.4316 26.072C64.8556 26.072 64.4356 26.232 64.1716 26.552C63.9156 26.864 63.7876 27.4 63.7876 28.16C63.7876 28.872 63.9156 29.392 64.1716 29.72C64.4356 30.04 64.8556 30.2 65.4316 30.2ZM70.2197 32V24.272H72.1397L75.0557 28.364V24.272H77.3117V32H75.3797L72.4757 27.92V32H70.2197ZM78.3877 32V24.272H80.6437V32H78.3877ZM81.4875 32L84.4515 24.272H86.8395L89.8035 32H87.4515L86.8035 30.356H84.4755L83.8395 32H81.4875ZM84.7755 28.736H86.5035L85.6395 26.468L84.7755 28.736Z" fill="white"/>
<mask id="mask0_2_13" style="mask-type:alpha" maskUnits="userSpaceOnUse" x="1" y="16" width="23" height="24">
<path d="M1.62 40V16.816H8.388V24.988L15.408 16.816H23.112L14.94 26.32L23.688 40H16.488L10.764 30.64L8.388 33.304V40H1.62Z" fill="white"/>
</mask>
<g mask="url(#mask0_2_13)">
<circle cx="10.5" cy="27.5" r="10.5" fill="#F4F4F4"/>
</g>
</svg>
